<?xml version="1.0" encoding="UTF-8" standalone="no"?>
<svg
   xmlns:dc="http://purl.org/dc/elements/1.1/"
   xmlns:cc="http://creativecommons.org/ns#"
   xmlns:rdf="http://www.w3.org/1999/02/22-rdf-syntax-ns#"
   xmlns:svg="http://www.w3.org/2000/svg"
   xmlns="http://www.w3.org/2000/svg"
   xmlns:sodipodi="http://sodipodi.sourceforge.net/DTD/sodipodi-0.dtd"
   xmlns:inkscape="http://www.inkscape.org/namespaces/inkscape"
   width="210mm"
   height="297mm"
   viewBox="0 0 210 297"
   version="1.1"
   id="svg8"
   inkscape:version="1.0.2 (1.0.2+r75+1)"
   sodipodi:docname="title.svg">
  <defs
     id="defs2">
    <rect
       x="125.91144"
       y="275.40158"
       width="7.5501206"
       height="20.195194"
       id="rect910" />
    <rect
       x="77.8636"
       y="32.496259"
       width="118.34098"
       height="16.487223"
       id="rect1249" />
    <rect
       x="72.434283"
       y="39.122217"
       width="130.73565"
       height="16.408432"
       id="rect1243" />
    <rect
       x="90.889607"
       y="135.89705"
       width="120.42643"
       height="11.856673"
       id="rect875" />
    <rect
       x="96.736214"
       y="82.0567"
       width="108.56171"
       height="14.304473"
       id="rect869" />
  </defs>
  <sodipodi:namedview
     id="base"
     pagecolor="#ffffff"
     bordercolor="#666666"
     borderopacity="1.0"
     inkscape:pageopacity="0.0"
     inkscape:pageshadow="2"
     inkscape:zoom="1.4142136"
     inkscape:cx="325.97112"
     inkscape:cy="393.63604"
     inkscape:document-units="mm"
     inkscape:current-layer="layer1"
     inkscape:document-rotation="0"
     showgrid="false"
     inkscape:window-width="1920"
     inkscape:window-height="1016"
     inkscape:window-x="1920"
     inkscape:window-y="27"
     inkscape:window-maximized="1"
     units="mm"
     showguides="true"
     inkscape:guide-bbox="true"
     inkscape:snap-text-baseline="true">
    <sodipodi:guide
       position="20,297"
       orientation="-1,0"
       id="guide885"
       inkscape:label=""
       inkscape:locked="false"
       inkscape:color="rgb(0,0,255)" />
    <sodipodi:guide
       position="190,297"
       orientation="-1,0"
       id="guide887"
       inkscape:label=""
       inkscape:locked="false"
       inkscape:color="rgb(0,0,255)" />
    <sodipodi:guide
       position="210,297"
       orientation="-1,0"
       id="guide935"
       inkscape:label=""
       inkscape:locked="false"
       inkscape:color="rgb(0,0,255)" />
    <sodipodi:guide
       position="0,277"
       orientation="0,1"
       id="guide886"
       inkscape:label=""
       inkscape:locked="false"
       inkscape:color="rgb(0,0,255)" />
    <sodipodi:guide
       position="0,10"
       orientation="0,1"
       id="guide888"
       inkscape:label=""
       inkscape:locked="false"
       inkscape:color="rgb(0,0,255)" />
    <sodipodi:guide
       position="105,297"
       orientation="-1,0"
       id="guide914"
       inkscape:label=""
       inkscape:locked="false"
       inkscape:color="rgb(0,0,255)" />
    <sodipodi:guide
       position="62.625579,50.533951"
       orientation="0,-1"
       id="guide990" />
    <sodipodi:guide
       position="97,297"
       orientation="-1,0"
       id="guide1134"
       inkscape:label=""
       inkscape:locked="false"
       inkscape:color="rgb(0,0,255)" />
    <sodipodi:guide
       position="144.5,46.750634"
       orientation="-1,0"
       id="guide1138"
       inkscape:label=""
       inkscape:locked="false"
       inkscape:color="rgb(0,0,255)" />
  </sodipodi:namedview>
  <metadata
     id="metadata5">
    <rdf:RDF>
      <cc:Work
         rdf:about="">
        <dc:format>image/svg+xml</dc:format>
        <dc:type
           rdf:resource="http://purl.org/dc/dcmitype/StillImage" />
        <dc:title />
      </cc:Work>
    </rdf:RDF>
  </metadata>
  <g
     inkscape:label="Layer 1"
     inkscape:groupmode="layer"
     id="layer1">
    <g
       id="g38"
       transform="matrix(0.03527778,0,0,-0.03527778,20,39.453756)">
      <path
         d="M 0,146.711 H 1303.38 V 551.445 H 0 Z"
         style="fill:#632390;fill-opacity:1;fill-rule:nonzero;stroke:none"
         id="path40" />
      <path
         d="m 828.043,304.012 c -11.816,0 -21.934,-6.707 -21.934,-16.582 0,-8.641 4.844,-14.59 27.129,-23.192 9.59,5.469 16.387,12.352 16.387,21.297 0,11.309 -9.59,18.477 -21.582,18.477 z m -3.926,-47.949 c -11.679,-5.801 -18.691,-13.985 -18.691,-24.18 0,-13.336 10.449,-22.086 23.476,-22.086 12.852,0 23.457,8.277 23.457,20.523 0,10.508 -8.379,17.442 -28.242,25.743 m 12.344,6.085 c 17.988,-7.351 26.016,-15.363 26.016,-27.433 0,-16.309 -14.747,-28.867 -33.75,-28.867 -18.516,0 -33.243,11.449 -33.243,25.722 0,10.996 8.555,19.942 25.196,26.067 -16.114,6.601 -23.828,14.258 -23.828,24.922 0,13.808 14.238,25.418 31.367,25.418 17.129,0 30.84,-10.028 30.84,-22.586 0,-10.039 -7.52,-17.735 -22.598,-23.243 m 141.23,29.618 -35.214,-48.301 h 35.214 z m -43.3,-56.153 v 3.633 l 49.726,67.758 h 4.629 v -63.539 h 12.874 v -7.852 H 988.746 V 207.43 h -11.055 v 28.183 h -43.3 M 746.48,207.43 v 3.769 c 14.805,0 15.508,2.539 15.508,10.235 h 0.02 v 73.019 c -5.274,-4.394 -14.473,-10.195 -20.606,-12.89 l -1.308,2.207 c 9.551,6.113 23.242,17.89 27.187,23.234 h 5.762 v -83.441 c 0.195,-10.079 2.109,-12.012 16.875,-12.364 v -3.769 z m 186.25,21.797 h -2.949 c -2.129,-9.469 -4.883,-11.969 -12.656,-12.129 h -37.031 c 19.531,17.168 49.57,39.574 49.57,63.293 0,15.742 -11.992,27.586 -28.34,27.586 -16.855,0 -29.629,-12.157 -31.484,-29.93 h 2.48 c 3.575,12.637 13.418,21.055 24.473,21.055 11.699,0 20.586,-9.219 20.586,-20.911 0,-27.968 -45.547,-62.382 -49.57,-66.308 v -4.453 h 61.953 l 0.019,-0.02 v 0.02 h 0.039 l 1.309,9.668 h -0.02 z m -95.839,197.961 c -2.539,16.289 -7.539,17.421 -14.512,17.421 h -44.082 v -48.046 h 34.512 c 7.109,0 10.468,0.906 11.445,12.343 h 3.75 v -33.078 h -3.75 c -1.582,13.996 -5.332,13.137 -13.438,13.137 h -32.519 v -42.031 c 0,-9.075 4.18,-10.84 11.465,-10.84 h 29.57 c 13.574,0 18.047,2.91 22.793,19.539 h 3.594 l -3.086,-26.629 h -97.598 v 3.75 c 15.801,0.391 16.895,2.566 16.895,14.59 l 0.078,86.054 c 0,12.051 -1.113,14.219 -16.895,14.59 v 3.758 l 93.848,-0.047 1.543,-24.511 z m 86.64,4.023 h 83.769 l 2.4,-22.246 h -2.91 c -2.42,14.238 -5.41,16.074 -11.872,16.074 h -22.48 v -80.84 c 0,-8.73 2.929,-11.816 12.773,-11.816 h 3.711 v -3.399 H 941.91 v 3.399 h 3.692 c 9.843,0 12.773,3.086 12.773,11.816 v 80.84 h -22.461 c -6.465,0 -9.355,-1.758 -11.797,-16.094 h -2.91 z m -59.238,-17.344 c 0,9.141 8.184,14.668 19.922,14.668 12.265,0 23.652,-7.812 28.633,-19.57 h 2.851 l -2.344,17.48 c -6.113,2.793 -19.218,6.864 -30.742,6.864 -18.144,0 -31.308,-11.786 -31.308,-25.36 0,-28.574 56.738,-34.941 56.738,-58.445 0,-12.902 -12.617,-18.418 -24.531,-18.418 -13.907,0 -26.66,8.445 -30.449,24.547 h -3.125 l 3.613,-24.324 c 9.199,-2.559 21.719,-5.481 31.562,-5.481 20.801,0 35.938,13.418 35.938,29.426 0,30.059 -56.758,35.43 -56.758,58.613"
         style="fill:#fcd205;fill-opacity:1;fill-rule:nonzero;stroke:none"
         id="path42" />
      <path
         d="m 1153.28,384.688 c -4.55,0 -7.54,-0.196 -12.29,0.39 v 63.418 c 3.58,0.399 6.17,0.399 9.9,0.399 30.57,0 38.91,-13.446 38.91,-31.903 0,-23.801 -14.49,-32.304 -36.52,-32.304 z m 67.05,-32.833 -15.67,15 c -9.33,9.317 -15.27,13.426 -22.61,19.192 16.28,4.762 26.4,17.262 26.4,32.129 0,20.242 -16.46,35.32 -53.16,35.32 -12.91,0 -16.88,-0.195 -25,-0.605 -8.13,-0.391 -20.24,-1.192 -25,-1.192 v -3.769 h 4.35 c 11.51,0 14.91,-3.555 14.91,-15.871 v -82.821 c 0,-13.3 -4.18,-16.484 -15.88,-16.484 h -3.38 v -3.75 h 56.13 v 3.75 h -4.55 c -11.13,0 -15.88,2.976 -15.88,14.883 v 32.859 c 3.18,-0.215 5.76,-0.398 10.12,-0.398 5.21,0 8.36,0.183 13.06,0.371 15.12,-8.653 26.94,-21.953 33.95,-28.614 18.09,-17.226 22.3,-24.445 57.01,-22.851 v 3.75 c -15.25,0.996 -23.08,7.383 -34.8,19.101 z m -67.05,32.833 c -4.55,0 -7.54,-0.196 -12.29,0.39 v 63.418 c 3.58,0.399 6.17,0.399 9.9,0.399 30.57,0 38.91,-13.446 38.91,-31.903 0,-23.801 -14.49,-32.304 -36.52,-32.304 z m 67.05,-32.833 -15.67,15 c -9.33,9.317 -15.27,13.426 -22.61,19.192 16.28,4.762 26.4,17.262 26.4,32.129 0,20.242 -16.46,35.32 -53.16,35.32 -12.91,0 -16.88,-0.195 -25,-0.605 -8.13,-0.391 -20.24,-1.192 -25,-1.192 v -3.769 h 4.35 c 11.51,0 14.91,-3.555 14.91,-15.871 v -82.821 c 0,-13.3 -4.18,-16.484 -15.88,-16.484 h -3.38 v -3.75 h 56.13 v 3.75 h -4.55 c -11.13,0 -15.88,2.976 -15.88,14.883 v 32.859 c 3.18,-0.215 5.76,-0.398 10.12,-0.398 5.21,0 8.36,0.183 13.06,0.371 15.12,-8.653 26.94,-21.953 33.95,-28.614 18.09,-17.226 22.3,-24.445 57.01,-22.851 v 3.75 c -15.25,0.996 -23.08,7.383 -34.8,19.101 z M 551.52,454.668 c 20.703,0 35.918,-6.953 45.125,-10.898 l 1.535,-24.426 h -3.77 c -6.496,18.359 -20.195,30.383 -41.719,30.383 -32.949,0 -49.375,-25.489 -49.375,-58.641 0,-35.715 21.563,-59.836 51.563,-59.836 8.984,0 31.453,5.977 44.883,29.863 h 3.73 l -9.433,-23.152 c -11.758,-5.617 -21.231,-12.133 -44.512,-12.133 -40.059,0 -63.965,26.438 -63.965,62.942 0,38.281 24.688,65.898 65.938,65.898 z M 742.125,332.754 v -3.731 h -48.82 v 3.731 c 14.894,0.371 16.711,2.344 16.867,12.684 v 43.527 h -72.453 v -41.602 l 0.031,0.008 c 0,-12.031 1.113,-14.207 16.883,-14.598 v -3.75 h -48.809 v 3.75 c 14.797,0 15.5,2.567 15.5,10.254 h 0.02 v 94.676 l -0.039,0.012 c 0,7.695 -0.703,10.254 -15.5,10.254 v 3.75 h 48.82 v -3.75 c -15.781,-0.391 -16.895,-2.559 -16.895,-14.59 h -0.039 l -0.039,-36.816 h 72.461 l 0.039,38.515 c -0.136,10.508 -1.894,12.52 -16.875,12.883 v 3.738 h 48.809 v -3.738 c -14.785,0 -15.508,-2.551 -15.508,-10.258 l -0.051,-0.008 v -94.668 l 0.078,-0.011 c 0,-7.684 0.704,-10.262 15.52,-10.262 z m -478.137,53.242 22.617,53.574 22.403,-53.574 z m 179.121,65.703 v -3.75 c 15.774,-0.39 16.875,-2.558 16.875,-14.601 v -78.524 l -82.429,96.875 h -29.512 v -3.75 c 6.895,-0.187 10.566,-1.758 15.098,-4.922 v -97.07 c 0,-7.492 -2.871,-12.832 -9.493,-12.832 -5.273,0 -7.714,5.82 -10.585,12.051 l -45.918,106.523 h -14.004 l -42.383,-99.433 c -7.578,-16.504 -8.945,-19.172 -13.028,-19.172 -5.117,0 -6.933,4.562 -7.792,17.804 l -6.028,86.817 c 0,7.695 2.336,10.254 17.141,10.254 v 3.75 H 197.777 L 154.414,352.07 110.813,451.699 H 76.2383 v -3.738 c 14.8047,0 17.1562,-2.551 17.1562,-10.258 L 88.1367,353.848 C 87.1406,335.898 85.375,332.734 70.9531,332.734 v -3.73 h 41.0549 v 3.73 c -8.883,0.411 -16.3791,2.559 -15.7971,12.618 l 5.3281,88.789 h 0.414 l 46.348,-105.137 h 4.527 l 45.008,105.137 h 0.402 l 5.711,-88.379 c 0.801,-10.469 -8.289,-13.028 -17.547,-13.028 v -3.73 h 76.161 v 3.73 h -0.711 c -10.852,0 -15.977,1.973 -15.977,7.305 0,2.762 2.578,8.672 3.945,12.441 l 10.957,25.938 h 51.407 l 12.929,-30.879 c 0.782,-1.973 2.168,-4.941 2.168,-8.086 0,-5.527 -4.14,-6.719 -15.39,-6.719 h -2.688 v -3.73 h 80.293 v 3.73 c -16.785,0 -17.469,2.957 -17.469,17.168 v 84.629 l 91.707,-106.914 h 5.129 v 110.086 c 0,7.688 0.711,10.246 15.528,10.246 v 3.75 z m 655.621,-24.511 -1.57,24.511 -93.83,0.047 v -3.758 c 15.79,-0.371 16.88,-2.539 16.88,-14.59 l -0.06,-86.054 c 0,-12.024 -1.11,-14.199 -16.89,-14.59 v -3.75 h 97.57 l 3.11,26.629 h -3.59 c -4.77,-16.629 -9.2,-19.539 -22.8,-19.539 H 1048 c -7.32,0 -11.48,1.765 -11.48,10.84 v 42.031 h 32.54 c 8.08,0 11.85,0.859 13.42,-13.137 h 3.75 v 33.078 h -3.75 c -1,-11.437 -4.36,-12.343 -11.45,-12.343 h -34.51 v 48.046 h 44.06 c 6.99,0 11.99,-1.132 14.53,-17.421 h 3.62"
         style="fill:#ffffff;fill-opacity:1;fill-rule:nonzero;stroke:none"
         id="path44" />
    </g>
    <g
       id="g943">
      <rect
         style="fill:#e0e0e0;fill-opacity:1;fill-rule:evenodd;stroke-width:0.234369"
         id="rect185"
         width="190"
         height="3"
         x="20"
         y="130" />
      <rect
         style="fill:#e0e0e0;fill-opacity:1;fill-rule:evenodd;stroke-width:0.234369"
         id="rect185-6"
         width="190"
         height="3"
         x="20"
         y="170" />
      <rect
         style="fill:#e0e0e0;fill-opacity:1;fill-rule:evenodd;stroke-width:0.234369"
         id="rect185-6-4"
         width="190"
         height="3"
         x="20"
         y="150" />
      <rect
         style="fill:#e0e0e0;fill-opacity:1;fill-rule:evenodd;stroke-width:0.234369"
         id="rect185-6-0"
         width="190"
         height="3"
         x="20"
         y="190" />
      <rect
         style="fill:#e0e0e0;fill-opacity:1;fill-rule:evenodd;stroke-width:0.234369"
         id="rect185-6-0-2"
         width="190"
         height="3"
         x="20"
         y="210" />
      <rect
         style="fill:#e0e0e0;fill-opacity:1;fill-rule:evenodd;stroke-width:0.204221"
         id="rect183"
         width="5"
         height="83"
         x="20"
         y="130" />
    </g>
    <path
       id="path26"
       stroke="#000000"
       d="m 67.040495,100.31169 c -5.541513,-0.14395 -12.022442,13.08849 -11.80699,24.88932 0.05013,3.5943 1.184479,10.88393 2.839678,20.0391 -10.438694,10.80426 -22.560174,21.89239 -22.560174,36.441 -0.166454,13.33254 7.981938,30.31851 27.314419,30.15515 2.967312,-0.0193 5.637495,-0.38804 8.009506,-1.02114 1.767528,9.69027 2.942813,17.3383 2.935661,20.87132 0.06225,13.92778 -18.236834,15.30628 -19.113961,7.30087 3.856688,-0.13278 6.925096,-3.19607 6.925096,-6.98433 0,-3.86998 -3.204208,-7.0252 -7.180379,-7.0252 -2.18617,0 -4.13443,0.95985 -5.455737,2.46088 -0.03056,0.0309 -0.06638,0.0613 -0.09593,0.092 -0.298158,0.31647 -0.549344,0.69436 -0.797476,1.12319 -0.814836,1.37852 -1.343765,3.35943 -1.372361,6.18789 0,11.66096 29.484269,19.16603 29.484269,-3.82912 0.04597,-3.09395 -1.284544,-10.94622 -3.222597,-20.84067 21.037722,-7.60717 15.752508,-38.84263 -3.6055,-38.98967 -1.501023,0.0153 -2.94791,0.18986 -4.339673,0.54321 -1.102786,-5.30668 -2.166781,-10.45712 -3.095976,-15.1899 7.350888,-7.2202 13.769526,-16.56632 13.625558,-33.79128 0.02241,-12.36958 -4.098694,-22.28855 -8.487394,-22.43253 z m 1.308029,11.9663 c 2.507812,-0.24197 4.49896,2.08611 4.49896,7.21099 0.203188,8.80187 -5.963221,16.48875 -13.305956,24.21948 -0.70252,-4.23449 -1.163034,-7.6654 -1.21306,-9.70047 0.208314,-13.7501 5.839669,-21.32666 10.020056,-21.73 z m -7.881872,45.62988 c 0.895502,4.6103 1.862486,9.46764 2.839678,14.35975 -12.812762,4.55819 -18.961825,22.4172 -0.79749,30.40933 -11.071788,-9.42577 -5.622176,-20.58333 2.360789,-22.52747 2.007481,10.02312 3.96799,19.91348 5.552735,28.46007 -2.151449,0.75561 -4.66233,1.19469 -7.594936,1.21515 -7.332513,0 -21.985303,-4.66647 -21.985303,-22.33657 0,-14.79983 10.258993,-20.81412 19.624527,-29.58026 z m 6.222576,21.92199 c 0.319585,-0.0192 0.665756,-0.0115 0.988428,0 13.33862,0 18.369578,21.18272 4.786909,27.95262 -1.689907,-8.49555 -3.739261,-18.23687 -5.775337,-27.95262 z"
       style="opacity:1;fill:#9e9e9e;fill-opacity:1;stroke:#9e9e9e;stroke-width:1.021;stroke-miterlimit:4;stroke-dasharray:none;stroke-opacity:1" />
    <text
       xml:space="preserve"
       id="text873"
       style="fill:black;fill-opacity:1;line-height:1.25;stroke:none;font-family:sans-serif;font-style:normal;font-weight:normal;font-size:10.58333333px;white-space:pre;shape-inside:url(#rect875);" />
    <rect
       style="fill:#9e9e9e;fill-opacity:1;stroke:none;stroke-width:0.758817;stroke-opacity:1"
       id="rect925"
       width="1"
       height="17"
       x="105"
       y="133" />
    <rect
       style="fill:#9e9e9e;fill-opacity:1;stroke:none;stroke-width:0.758817;stroke-opacity:1"
       id="rect925-4"
       width="1"
       height="17"
       x="114.6132"
       y="133" />
    <rect
       style="fill:#9e9e9e;fill-opacity:1;stroke:none;stroke-width:0.758817;stroke-opacity:1"
       id="rect925-7"
       width="1"
       height="17"
       x="121.44992"
       y="133" />
    <rect
       style="fill:#9e9e9e;fill-opacity:1;stroke:none;stroke-width:0.758817;stroke-opacity:1"
       id="rect925-75"
       width="1"
       height="17"
       x="125.30357"
       y="133" />
    <rect
       style="fill:#9e9e9e;fill-opacity:1;stroke:none;stroke-width:0.758817;stroke-opacity:1"
       id="rect925-48"
       width="1"
       height="17"
       x="128.81721"
       y="133" />
    <rect
       style="fill:#9e9e9e;fill-opacity:1;stroke:none;stroke-width:0.758817;stroke-opacity:1"
       id="rect925-1"
       width="1"
       height="17"
       x="132.13339"
       y="133" />
    <rect
       style="fill:#9e9e9e;fill-opacity:1;stroke:none;stroke-width:0.758817;stroke-opacity:1"
       id="rect925-2"
       width="1"
       height="17"
       x="140.34541"
       y="133" />
    <rect
       style="fill:#9e9e9e;fill-opacity:1;stroke:none;stroke-width:0.758817;stroke-opacity:1"
       id="rect925-8"
       width="1"
       height="17"
       x="159.51709"
       y="133" />
    <rect
       style="fill:#9e9e9e;fill-opacity:1;stroke:none;stroke-width:0.758817;stroke-opacity:1"
       id="rect925-3"
       width="1"
       height="17"
       x="130.1384"
       y="153" />
    <rect
       style="fill:#9e9e9e;fill-opacity:1;stroke:none;stroke-width:0.758817;stroke-opacity:1"
       id="rect925-6"
       width="1"
       height="17"
       x="148.23569"
       y="153" />
    <rect
       style="fill:#9e9e9e;fill-opacity:1;stroke:none;stroke-width:0.758817;stroke-opacity:1"
       id="rect925-80"
       width="1"
       height="17"
       x="152.2744"
       y="153" />
    <rect
       style="fill:#9e9e9e;fill-opacity:1;stroke:none;stroke-width:0.758817;stroke-opacity:1"
       id="rect925-21"
       width="1"
       height="17"
       x="195.38765"
       y="153" />
    <rect
       style="fill:#9e9e9e;fill-opacity:1;stroke:none;stroke-width:0.758817;stroke-opacity:1"
       id="rect925-0"
       width="1"
       height="17"
       x="100.89351"
       y="173" />
    <rect
       style="fill:#9e9e9e;fill-opacity:1;stroke:none;stroke-width:0.758817;stroke-opacity:1"
       id="rect925-11"
       width="1"
       height="17"
       x="146.10426"
       y="173" />
    <rect
       style="fill:#9e9e9e;fill-opacity:1;stroke:none;stroke-width:0.758817;stroke-opacity:1"
       id="rect925-08"
       width="1"
       height="17"
       x="154.47179"
       y="173" />
    <rect
       style="fill:#9e9e9e;fill-opacity:1;stroke:none;stroke-width:0.758817;stroke-opacity:1"
       id="rect925-50"
       width="1"
       height="17"
       x="158.48141"
       y="173" />
    <rect
       style="fill:#9e9e9e;fill-opacity:1;stroke:none;stroke-width:0.758817;stroke-opacity:1"
       id="rect925-64"
       width="1"
       height="17"
       x="161.01401"
       y="173" />
    <rect
       style="fill:#9e9e9e;fill-opacity:1;stroke:none;stroke-width:0.758817;stroke-opacity:1"
       id="rect925-62"
       width="1"
       height="17"
       x="163.72099"
       y="173" />
    <rect
       style="fill:#9e9e9e;fill-opacity:1;stroke:none;stroke-width:0.758817;stroke-opacity:1"
       id="rect925-58"
       width="1"
       height="17"
       x="166.614"
       y="173" />
    <rect
       style="fill:#9e9e9e;fill-opacity:1;stroke:none;stroke-width:0.758817;stroke-opacity:1"
       id="rect925-58-6"
       width="1"
       height="17"
       x="172.5172"
       y="173" />
    <rect
       style="fill:#9e9e9e;fill-opacity:1;stroke:none;stroke-width:0.758817;stroke-opacity:1"
       id="rect925-58-6-2"
       width="1"
       height="17"
       x="179.47836"
       y="173" />
    <rect
       style="fill:#9e9e9e;fill-opacity:1;stroke:none;stroke-width:0.758817;stroke-opacity:1"
       id="rect925-58-6-8"
       width="1"
       height="17"
       x="189.3"
       y="173" />
    <rect
       style="fill:#9e9e9e;fill-opacity:1;stroke:none;stroke-width:0.758817;stroke-opacity:1"
       id="rect925-58-6-4"
       width="1"
       height="17"
       x="112.18967"
       y="193" />
    <rect
       style="fill:#9e9e9e;fill-opacity:1;stroke:none;stroke-width:0.758817;stroke-opacity:1"
       id="rect925-58-6-7"
       width="1"
       height="17"
       x="139.08141"
       y="193" />
    <rect
       style="fill:#9e9e9e;fill-opacity:1;stroke:none;stroke-width:0.758817;stroke-opacity:1"
       id="rect925-58-6-24"
       width="1"
       height="17"
       x="174.9641"
       y="193" />
    <rect
       style="fill:#9e9e9e;fill-opacity:1;stroke:none;stroke-width:0.758817;stroke-opacity:1"
       id="rect925-58-6-0"
       width="1"
       height="17"
       x="182.50217"
       y="193" />
    <text
       xml:space="preserve"
       id="text1241"
       style="fill:black;fill-opacity:1;line-height:1.25;stroke:none;font-family:sans-serif;font-style:normal;font-weight:normal;font-size:10.58333333px;white-space:pre;shape-inside:url(#rect1243);" />
    <text
       xml:space="preserve"
       id="text1247"
       style="fill:black;fill-opacity:1;line-height:1.25;stroke:none;font-family:sans-serif;font-style:normal;font-weight:normal;font-size:10.58333333px;white-space:pre;shape-inside:url(#rect1249);" />
    <text
       xml:space="preserve"
       style="font-style:normal;font-variant:normal;font-weight:normal;font-stretch:normal;font-size:7.05556px;line-height:1.25;font-family:'CMU Serif';-inkscape-font-specification:'CMU Serif, Normal';font-variant-ligatures:normal;font-variant-caps:normal;font-variant-numeric:normal;font-variant-east-asian:normal;text-align:start;text-anchor:start;fill:#000000;fill-opacity:1;stroke:none;stroke-width:0.264583"
       x="97"
       y="75.974167"
       id="text1259"><tspan
         sodipodi:role="line"
         id="tspan1257"
         x="97"
         y="75.974167"
         style="font-style:normal;font-variant:normal;font-weight:normal;font-stretch:normal;font-size:7.05556px;font-family:'CMU Serif';-inkscape-font-specification:'CMU Serif, Normal';font-variant-ligatures:normal;font-variant-caps:normal;font-variant-numeric:normal;font-variant-east-asian:normal;text-align:start;text-anchor:start;stroke-width:0.264583">with Spiking Neural Networks</tspan></text>
    <text
       xml:space="preserve"
       style="font-style:normal;font-variant:normal;font-weight:normal;font-stretch:normal;font-size:4.23333px;line-height:1.25;font-family:'CMU Serif';-inkscape-font-specification:'CMU Serif, Normal';font-variant-ligatures:normal;font-variant-caps:normal;font-variant-numeric:normal;font-variant-east-asian:normal;text-align:center;text-anchor:middle;fill:#000000;fill-opacity:1;stroke:none;stroke-width:0.264583"
       x="105"
       y="276.28448"
       id="text902"><tspan
         sodipodi:role="line"
         id="tspan900"
         x="105"
         y="276.28448"
         style="font-style:normal;font-variant:normal;font-weight:normal;font-stretch:normal;font-size:4.23333px;font-family:'CMU Serif';-inkscape-font-specification:'CMU Serif, Normal';font-variant-ligatures:normal;font-variant-caps:normal;font-variant-numeric:normal;font-variant-east-asian:normal;text-align:center;text-anchor:middle;stroke-width:0.264583">Department of Computer Science</tspan><tspan
         sodipodi:role="line"
         x="105"
         y="281.57614"
         style="font-style:normal;font-variant:normal;font-weight:normal;font-stretch:normal;font-size:4.23333px;font-family:'CMU Serif';-inkscape-font-specification:'CMU Serif, Normal';font-variant-ligatures:normal;font-variant-caps:normal;font-variant-numeric:normal;font-variant-east-asian:normal;text-align:center;text-anchor:middle;stroke-width:0.264583"
         id="tspan904">University of Manchester</tspan><tspan
         sodipodi:role="line"
         x="105"
         y="286.8678"
         style="font-style:normal;font-variant:normal;font-weight:normal;font-stretch:normal;font-size:4.23333px;font-family:'CMU Serif';-inkscape-font-specification:'CMU Serif, Normal';font-variant-ligatures:normal;font-variant-caps:normal;font-variant-numeric:normal;font-variant-east-asian:normal;text-align:center;text-anchor:middle;stroke-width:0.264583"
         id="tspan906">2021</tspan></text>
    <text
       xml:space="preserve"
       id="text908"
       style="fill:black;fill-opacity:1;line-height:1.25;stroke:none;font-family:sans-serif;font-style:normal;font-weight:normal;font-size:10.58333333px;white-space:pre;shape-inside:url(#rect910);" />
    <text
       xml:space="preserve"
       style="font-style:normal;font-variant:normal;font-weight:normal;font-stretch:normal;font-size:5.64444px;line-height:1.25;font-family:'CMU Serif';-inkscape-font-specification:'CMU Serif, Normal';font-variant-ligatures:normal;font-variant-caps:normal;font-variant-numeric:normal;font-variant-east-asian:normal;text-align:start;text-anchor:start;fill:#000000;fill-opacity:1;stroke:none;stroke-width:0.264583"
       x="144.5"
       y="246.46605"
       id="text918-7"><tspan
         sodipodi:role="line"
         x="144.5"
         y="246.46605"
         style="font-style:normal;font-variant:normal;font-weight:normal;font-stretch:normal;font-size:5.64444px;font-family:'CMU Serif';-inkscape-font-specification:'CMU Serif, Normal';font-variant-ligatures:normal;font-variant-caps:normal;font-variant-numeric:normal;font-variant-east-asian:normal;text-align:start;text-anchor:start;stroke-width:0.264583"
         id="tspan922-4">Prof. Steve Furber</tspan></text>
    <text
       xml:space="preserve"
       style="font-style:normal;font-variant:normal;font-weight:normal;font-stretch:normal;font-size:4.23333px;line-height:1.25;font-family:'CMU Serif';-inkscape-font-specification:'CMU Serif, Normal';font-variant-ligatures:normal;font-variant-caps:normal;font-variant-numeric:normal;font-variant-east-asian:normal;text-align:start;text-anchor:start;fill:#000000;fill-opacity:1;stroke:none;stroke-width:0.264583"
       x="144.5"
       y="239.4845"
       id="text918-7-3"><tspan
         sodipodi:role="line"
         x="144.5"
         y="239.4845"
         style="font-style:normal;font-variant:normal;font-weight:normal;font-stretch:normal;font-size:4.23333px;font-family:'CMU Serif';-inkscape-font-specification:'CMU Serif, Normal';font-variant-ligatures:normal;font-variant-caps:normal;font-variant-numeric:normal;font-variant-east-asian:normal;text-align:start;text-anchor:start;stroke-width:0.264583"
         id="tspan922-4-3">Supervisor</tspan></text>
    <text
       xml:space="preserve"
       style="font-style:normal;font-variant:normal;font-weight:normal;font-stretch:normal;font-size:5.64444px;line-height:1.25;font-family:'CMU Serif';-inkscape-font-specification:'CMU Serif, Normal';font-variant-ligatures:normal;font-variant-caps:normal;font-variant-numeric:normal;font-variant-east-asian:normal;text-align:start;text-anchor:start;fill:#424242;fill-opacity:1;stroke:none;stroke-width:0.264583;"
       x="97"
       y="89.917244"
       id="text988"><tspan
         sodipodi:role="line"
         id="tspan986"
         x="97"
         y="89.917244"
         style="font-style:normal;font-variant:normal;font-weight:normal;font-stretch:normal;font-size:5.64444px;font-family:'CMU Serif';-inkscape-font-specification:'CMU Serif, Normal';font-variant-ligatures:normal;font-variant-caps:normal;font-variant-numeric:normal;font-variant-east-asian:normal;text-align:start;text-anchor:start;fill:#424242;fill-opacity:1;stroke-width:0.264583;">Final Year Project Report</tspan></text>
    <text
       xml:space="preserve"
       style="font-style:normal;font-variant:normal;font-weight:normal;font-stretch:normal;font-size:4.23333px;line-height:1.25;font-family:'CMU Serif';-inkscape-font-specification:'CMU Serif, Normal';font-variant-ligatures:normal;font-variant-caps:normal;font-variant-numeric:normal;font-variant-east-asian:normal;text-align:start;text-anchor:start;fill:#000000;fill-opacity:1;stroke:none;stroke-width:0.264583"
       x="97"
       y="239.53107"
       id="text918-7-3-0"><tspan
         sodipodi:role="line"
         x="97"
         y="239.53107"
         style="font-style:normal;font-variant:normal;font-weight:normal;font-stretch:normal;font-size:4.23333px;font-family:'CMU Serif';-inkscape-font-specification:'CMU Serif, Normal';font-variant-ligatures:normal;font-variant-caps:normal;font-variant-numeric:normal;font-variant-east-asian:normal;text-align:start;text-anchor:start;stroke-width:0.264583"
         id="tspan922-4-3-9">Author</tspan></text>
    <text
       xml:space="preserve"
       style="font-style:normal;font-variant:normal;font-weight:normal;font-stretch:normal;font-size:5.64444px;line-height:1.25;font-family:'CMU Serif';-inkscape-font-specification:'CMU Serif, Normal';font-variant-ligatures:normal;font-variant-caps:normal;font-variant-numeric:normal;font-variant-east-asian:normal;text-align:start;text-anchor:start;fill:#000000;fill-opacity:1;stroke:none;stroke-width:0.264583"
       x="97"
       y="246.46605"
       id="text918-7-5"><tspan
         sodipodi:role="line"
         x="97"
         y="246.46605"
         style="font-style:normal;font-variant:normal;font-weight:normal;font-stretch:normal;font-size:5.64444px;font-family:'CMU Serif';-inkscape-font-specification:'CMU Serif, Normal';font-variant-ligatures:normal;font-variant-caps:normal;font-variant-numeric:normal;font-variant-east-asian:normal;text-align:start;text-anchor:start;stroke-width:0.264583"
         id="tspan922-4-4">Simas Kuprelis</tspan></text>
    <text
       xml:space="preserve"
       style="font-style:normal;font-variant:normal;font-weight:normal;font-stretch:normal;font-size:9.87778px;line-height:1.25;font-family:'CMU Serif';-inkscape-font-specification:'CMU Serif, Normal';font-variant-ligatures:normal;font-variant-caps:normal;font-variant-numeric:normal;font-variant-east-asian:normal;stroke-width:0.264583"
       x="97"
       y="65.963837"
       id="text909"><tspan
         sodipodi:role="line"
         x="97"
         y="65.963837"
         style="font-style:normal;font-variant:normal;font-weight:normal;font-stretch:normal;font-size:9.87778px;font-family:'CMU Serif';-inkscape-font-specification:'CMU Serif, Normal';font-variant-ligatures:normal;font-variant-caps:normal;font-variant-numeric:normal;font-variant-east-asian:normal;stroke-width:0.264583"
         id="tspan911">Melody Generation</tspan></text>
  </g>
</svg>
